HIERARCHY
ROOT newVegas:Hips
{
	OFFSET 0.000000 96.479958 0.000000
	CHANNELS 6 Xposition Yposition Zposition Xrotation Yrotation Zrotation
	JOINT newVegas:Pelvis
	{
		OFFSET 0.000000 0.000000 0.000000
		CHANNELS 3 Xrotation Yrotation Zrotation
		JOINT newVegas:LeftUpLeg
		{
			OFFSET 18.735201 -5.666702 -4.541200
			CHANNELS 3 Xrotation Yrotation Zrotation
			JOINT newVegas:LeftLeg
			{
				OFFSET -0.021200 -31.938179 0.493100
				CHANNELS 3 Xrotation Yrotation Zrotation
				JOINT newVegas:LeftFoot
				{
					OFFSET 0.021200 -31.938179 -4.336299
					CHANNELS 3 Xrotation Yrotation Zrotation
					JOINT newVegas:LeftToeBase
					{
						OFFSET 0.943001 -26.722000 15.023500
						CHANNELS 3 Xrotation Yrotation Zrotation
						End Site
						{
							OFFSET 0.000000 30.670183 0.000000
						}
					}
				}
				JOINT newVegas:Left_PantLeg
				{
					OFFSET 0.663870 -9.044666 -1.108900
					CHANNELS 3 Xrotation Yrotation Zrotation
					End Site
					{
						OFFSET 1.415995 20.635357 0.000000
					}
				}
			}
		}
		JOINT newVegas:RightUpLeg
		{
			OFFSET -18.735201 -5.666702 -4.541200
			CHANNELS 3 Xrotation Yrotation Zrotation
			JOINT newVegas:RightLeg
			{
				OFFSET 0.018946 -31.938133 0.493100
				CHANNELS 3 Xrotation Yrotation Zrotation
				JOINT newVegas:RightFoot
				{
					OFFSET -0.018946 -31.938126 -4.336299
					CHANNELS 3 Xrotation Yrotation Zrotation
					JOINT newVegas:RightToeBase
					{
						OFFSET -0.943001 -26.722004 15.023500
						CHANNELS 3 Xrotation Yrotation Zrotation
						End Site
						{
							OFFSET 0.000000 30.670187 0.000000
						}
					}
				}
				JOINT newVegas:Right_PantLeg
				{
					OFFSET -0.661674 -9.044716 -1.108900
					CHANNELS 3 Xrotation Yrotation Zrotation
					End Site
					{
						OFFSET -1.415958 20.635269 0.000000
					}
				}
			}
		}
	}
	JOINT newVegas:Spine
	{
		OFFSET 0.000000 10.199997 -0.299500
		CHANNELS 3 Xrotation Yrotation Zrotation
		JOINT newVegas:Spine1
		{
			OFFSET 0.000000 11.900002 -1.516600
			CHANNELS 3 Xrotation Yrotation Zrotation
			JOINT newVegas:Spine2
			{
				OFFSET 0.000000 13.600006 -2.842500
				CHANNELS 3 Xrotation Yrotation Zrotation
				JOINT newVegas:Neck
				{
					OFFSET 0.000000 9.624100 -2.890100
					CHANNELS 3 Xrotation Yrotation Zrotation
					JOINT newVegas:Head
					{
						OFFSET 0.000000 14.068802 -1.351900
						CHANNELS 3 Xrotation Yrotation Zrotation
						JOINT newVegas:Hair_Back
						{
							OFFSET 0.000000 3.231903 -17.524799
							CHANNELS 3 Xrotation Yrotation Zrotation
							End Site
							{
								OFFSET 0.000000 19.849884 0.000000
							}
						}
						JOINT newVegas:Hair_Front
						{
							OFFSET 0.000000 31.260406 4.573800
							CHANNELS 3 Xrotation Yrotation Zrotation
							JOINT newVegas:Hair_Front1
							{
								OFFSET 0.000000 2.284103 11.993300
								CHANNELS 3 Xrotation Yrotation Zrotation
								JOINT newVegas:Hair_Front2
								{
									OFFSET 0.000000 2.284103 11.993300
									CHANNELS 3 Xrotation Yrotation Zrotation
									End Site
									{
										OFFSET 0.000000 12.208862 0.000000
									}
								}
							}
						}
						JOINT newVegas:Jowel
						{
							OFFSET 0.000000 -7.458206 6.864100
							CHANNELS 3 Xrotation Yrotation Zrotation
							End Site
							{
								OFFSET 0.000000 19.849884 0.000000
							}
						}
					}
				}
				JOINT newVegas:LeftShoulder
				{
					OFFSET 15.263000 10.923401 -0.547700
					CHANNELS 3 Xrotation Yrotation Zrotation
					JOINT newVegas:LeftArm
					{
						OFFSET 25.438599 -2.830597 -13.032500
						CHANNELS 3 Xrotation Yrotation Zrotation
						JOINT newVegas:LeftForeArm
						{
							OFFSET 29.960503 0.000000 0.000000
							CHANNELS 3 Xrotation Yrotation Zrotation
							JOINT newVegas:LeftHand
							{
								OFFSET 27.849251 0.000000 0.000000
								CHANNELS 3 Xrotation Yrotation Zrotation
								JOINT newVegas:LeftHandThumb1
								{
									OFFSET 4.487587 -3.305161 6.305391
									CHANNELS 3 Xrotation Yrotation Zrotation
									JOINT newVegas:LeftHandThumb2
									{
										OFFSET 5.480453 -3.164139 3.164143
										CHANNELS 3 Xrotation Yrotation Zrotation
										JOINT newVegas:LeftHandThumb3
										{
											OFFSET 5.159721 -2.978973 2.978967
											CHANNELS 3 Xrotation Yrotation Zrotation
											End Site
											{
												OFFSET 2.494507 5.926697 1.738678
											}
										}
									}
								}
								JOINT newVegas:LeftHandIndex1
								{
									OFFSET 18.578728 -0.527832 5.208049
									CHANNELS 3 Xrotation Yrotation Zrotation
									JOINT newVegas:LeftHandIndex2
									{
										OFFSET 3.192009 0.000000 0.000000
										CHANNELS 3 Xrotation Yrotation Zrotation
										JOINT newVegas:LeftHandIndex3
										{
											OFFSET 3.835129 0.000000 0.000000
											CHANNELS 3 Xrotation Yrotation Zrotation
											End Site
											{
												OFFSET -0.034599 3.816971 0.371180
											}
										}
									}
								}
								JOINT newVegas:LeftHandMiddle1
								{
									OFFSET 18.476105 0.000000 0.000000
									CHANNELS 3 Xrotation Yrotation Zrotation
									JOINT newVegas:LeftHandMiddle2
									{
										OFFSET 3.324875 0.000000 0.000000
										CHANNELS 3 Xrotation Yrotation Zrotation
										JOINT newVegas:LeftHandMiddle3
										{
											OFFSET 4.596550 0.000000 0.000000
											CHANNELS 3 Xrotation Yrotation Zrotation
											End Site
											{
												OFFSET 0.057701 4.578827 0.399218
											}
										}
									}
								}
								JOINT newVegas:LeftHandRing1
								{
									OFFSET 17.732719 0.121887 -4.201567
									CHANNELS 3 Xrotation Yrotation Zrotation
									JOINT newVegas:LeftHandRing2
									{
										OFFSET 2.733170 0.000000 0.000000
										CHANNELS 3 Xrotation Yrotation Zrotation
										JOINT newVegas:LeftHandRing3
										{
											OFFSET 3.178268 0.000000 0.000000
											CHANNELS 3 Xrotation Yrotation Zrotation
											End Site
											{
												OFFSET 0.119102 3.170624 0.185394
											}
										}
									}
								}
								JOINT newVegas:LeftHandPinky1
								{
									OFFSET 15.989624 -0.606689 -7.535461
									CHANNELS 3 Xrotation Yrotation Zrotation
									JOINT newVegas:LeftHandPinky2
									{
										OFFSET 2.538986 0.000000 0.000000
										CHANNELS 3 Xrotation Yrotation Zrotation
										JOINT newVegas:LeftHandPinky3
										{
											OFFSET 2.593102 0.000000 0.000000
											CHANNELS 3 Xrotation Yrotation Zrotation
											End Site
											{
												OFFSET -0.150902 2.584198 0.152708
											}
										}
									}
								}
							}
							JOINT newVegas:Left_Sleeve
							{
								OFFSET 0.267448 -0.649796 0.577675
								CHANNELS 3 Xrotation Yrotation Zrotation
								End Site
								{
									OFFSET 0.000000 15.991241 0.000000
								}
							}
							JOINT newVegas:Left_CapeC
							{
								OFFSET 15.715958 -8.608795 -6.935905
								CHANNELS 3 Xrotation Yrotation Zrotation
								JOINT newVegas:Left_CapeC1
								{
									OFFSET 0.000000 -8.688499 0.000000
									CHANNELS 3 Xrotation Yrotation Zrotation
									End Site
									{
										OFFSET 0.000000 8.688499 0.000000
									}
								}
							}
						}
						JOINT newVegas:Left_CapeB
						{
							OFFSET 26.118385 -8.608795 -7.079235
							CHANNELS 3 Xrotation Yrotation Zrotation
							JOINT newVegas:Left_CapeB1
							{
								OFFSET 0.000000 -8.688499 0.000000
								CHANNELS 3 Xrotation Yrotation Zrotation
								End Site
								{
									OFFSET 0.000000 8.688499 0.000000
								}
							}
						}
						JOINT newVegas:Left_CapeA
						{
							OFFSET 5.115639 -8.608795 -10.395809
							CHANNELS 3 Xrotation Yrotation Zrotation
							JOINT newVegas:Left_CapeA1
							{
								OFFSET 0.000000 -8.688499 0.000000
								CHANNELS 3 Xrotation Yrotation Zrotation
								End Site
								{
									OFFSET 0.000000 8.688499 0.000000
								}
							}
						}
					}
				}
				JOINT newVegas:RightShoulder
				{
					OFFSET -15.263000 10.923401 -0.547700
					CHANNELS 3 Xrotation Yrotation Zrotation
					JOINT newVegas:RightArm
					{
						OFFSET -25.438599 -2.830597 -13.032500
						CHANNELS 3 Xrotation Yrotation Zrotation
						JOINT newVegas:RightForeArm
						{
							OFFSET -29.960503 0.000000 0.000000
							CHANNELS 3 Xrotation Yrotation Zrotation
							JOINT newVegas:RightHand
							{
								OFFSET -27.849251 0.000000 0.000000
								CHANNELS 3 Xrotation Yrotation Zrotation
								JOINT newVegas:RightHandThumb1
								{
									OFFSET -4.487587 -3.305161 6.305391
									CHANNELS 3 Xrotation Yrotation Zrotation
									JOINT newVegas:RightHandThumb2
									{
										OFFSET -5.480453 -3.164139 3.164143
										CHANNELS 3 Xrotation Yrotation Zrotation
										JOINT newVegas:RightHandThumb3
										{
											OFFSET -5.159721 -2.978973 2.978967
											CHANNELS 3 Xrotation Yrotation Zrotation
											End Site
											{
												OFFSET -2.494507 5.926697 1.738678
											}
										}
									}
								}
								JOINT newVegas:RightHandIndex1
								{
									OFFSET -18.578728 -0.527832 5.208049
									CHANNELS 3 Xrotation Yrotation Zrotation
									JOINT newVegas:RightHandIndex2
									{
										OFFSET -3.192009 0.000000 0.000000
										CHANNELS 3 Xrotation Yrotation Zrotation
										JOINT newVegas:RightHandIndex3
										{
											OFFSET -3.835129 0.000000 0.000000
											CHANNELS 3 Xrotation Yrotation Zrotation
											End Site
											{
												OFFSET 0.034599 3.816971 0.371180
											}
										}
									}
								}
								JOINT newVegas:RightHandMiddle1
								{
									OFFSET -18.476105 0.000000 0.000000
									CHANNELS 3 Xrotation Yrotation Zrotation
									JOINT newVegas:RightHandMiddle2
									{
										OFFSET -3.324875 0.000000 0.000000
										CHANNELS 3 Xrotation Yrotation Zrotation
										JOINT newVegas:RightHandMiddle3
										{
											OFFSET -4.596550 0.000000 0.000000
											CHANNELS 3 Xrotation Yrotation Zrotation
											End Site
											{
												OFFSET -0.057701 4.578827 0.399218
											}
										}
									}
								}
								JOINT newVegas:RightHandRing1
								{
									OFFSET -17.732719 0.121887 -4.201567
									CHANNELS 3 Xrotation Yrotation Zrotation
									JOINT newVegas:RightHandRing2
									{
										OFFSET -2.733170 0.000000 0.000000
										CHANNELS 3 Xrotation Yrotation Zrotation
										JOINT newVegas:RightHandRing3
										{
											OFFSET -3.178268 0.000000 0.000000
											CHANNELS 3 Xrotation Yrotation Zrotation
											End Site
											{
												OFFSET -0.119102 3.170624 0.185394
											}
										}
									}
								}
								JOINT newVegas:RightHandPinky1
								{
									OFFSET -15.989624 -0.606689 -7.535461
									CHANNELS 3 Xrotation Yrotation Zrotation
									JOINT newVegas:RightHandPinky2
									{
										OFFSET -2.538986 0.000000 0.000000
										CHANNELS 3 Xrotation Yrotation Zrotation
										JOINT newVegas:RightHandPinky3
										{
											OFFSET -2.593102 0.000000 0.000000
											CHANNELS 3 Xrotation Yrotation Zrotation
											End Site
											{
												OFFSET 0.150902 2.584198 0.152708
											}
										}
									}
								}
							}
							JOINT newVegas:Right_CapeC
							{
								OFFSET -15.715958 -8.608795 -6.935905
								CHANNELS 3 Xrotation Yrotation Zrotation
								JOINT newVegas:Right_CapeC1
								{
									OFFSET 0.000000 -8.688499 0.000000
									CHANNELS 3 Xrotation Yrotation Zrotation
									End Site
									{
										OFFSET 0.000000 8.688499 0.000000
									}
								}
							}
							JOINT newVegas:Right_Sleeve
							{
								OFFSET -0.267448 -0.649994 0.577675
								CHANNELS 3 Xrotation Yrotation Zrotation
								End Site
								{
									OFFSET 0.000000 15.991302 0.000000
								}
							}
						}
						JOINT newVegas:Right_CapeA
						{
							OFFSET -5.115540 -8.608795 -10.395824
							CHANNELS 3 Xrotation Yrotation Zrotation
							JOINT newVegas:Right_CapeA1
							{
								OFFSET 0.000000 -8.688499 0.000000
								CHANNELS 3 Xrotation Yrotation Zrotation
								End Site
								{
									OFFSET 0.000000 8.688499 0.000000
								}
							}
						}
						JOINT newVegas:Right_CapeB
						{
							OFFSET -26.118187 -8.608795 -7.079266
							CHANNELS 3 Xrotation Yrotation Zrotation
							JOINT newVegas:Right_CapeB1
							{
								OFFSET 0.000000 -8.688499 0.000000
								CHANNELS 3 Xrotation Yrotation Zrotation
								End Site
								{
									OFFSET 0.000000 8.688499 0.000000
								}
							}
						}
					}
				}
				JOINT newVegas:Left_Collar
				{
					OFFSET 18.625099 8.655502 8.828100
					CHANNELS 3 Xrotation Yrotation Zrotation
					JOINT newVegas:Left_Collar1
					{
						OFFSET 14.783401 10.540405 -1.259500
						CHANNELS 3 Xrotation Yrotation Zrotation
						End Site
						{
							OFFSET 0.000000 18.199875 0.000000
						}
					}
				}
				JOINT newVegas:Collar_Back
				{
					OFFSET 0.000000 15.630707 -20.132601
					CHANNELS 3 Xrotation Yrotation Zrotation
					End Site
					{
						OFFSET 0.000000 22.523010 0.000000
					}
				}
				JOINT newVegas:Left_Peck
				{
					OFFSET 17.239599 -5.132599 25.482599
					CHANNELS 3 Xrotation Yrotation Zrotation
					End Site
					{
						OFFSET 0.000000 22.523010 0.000000
					}
				}
				JOINT newVegas:Right_Peck
				{
					OFFSET -17.239599 -5.132202 25.482599
					CHANNELS 3 Xrotation Yrotation Zrotation
					End Site
					{
						OFFSET 0.000000 22.523010 0.000000
					}
				}
				JOINT newVegas:Right_Collar
				{
					OFFSET -18.625099 8.655792 8.828100
					CHANNELS 3 Xrotation Yrotation Zrotation
					JOINT newVegas:Right_Collar1
					{
						OFFSET -14.783401 10.539993 -1.259500
						CHANNELS 3 Xrotation Yrotation Zrotation
						End Site
						{
							OFFSET 0.000000 18.199631 0.000000
						}
					}
				}
			}
		}
		JOINT newVegas:Belly
		{
			OFFSET 0.000000 -6.540398 9.014299
			CHANNELS 3 Xrotation Yrotation Zrotation
			End Site
			{
				OFFSET 0.000000 11.566666 0.000000
			}
		}
	}
	JOINT newVegas:ElvisFacialAnim_Joint
	{
		OFFSET 1.000000 -95.330101 -8.825800
		CHANNELS 3 Xrotation Yrotation Zrotation
		End Site
		{
			OFFSET 0.000000 35.315800 0.000000
		}
	}
}
MOTION
Frames: 4
Frame Time: 0.016667
-6.565781 85.570992 0.522530 51.520790 -70.887644 52.419014 -0.000002 0.000000 -0.000000 -57.392714 1.855528 -1.820455 46.028433 -9.886947 1.574426 -5.400514 -0.303751 -1.198304 -0.000000 -0.000000 0.000000 -0.000000 0.000000 0.000000 -46.303253 -2.267288 -21.041624 51.217219 -3.735681 -2.127849 -16.851455 -3.856761 17.581008 0.000000 -0.000000 -0.000000 -0.000001 0.000000 -0.000000 7.781197 3.350109 4.576840 12.707905 6.406375 6.655394 12.728355 6.436529 6.586131 1.352263 -0.200029 0.900079 1.352291 -0.200041 0.900108 -0.000001 0.000001 -0.000000 1.352298 -0.200025 0.900097 1.352293 -0.200059 0.900093 0.000001 -0.000000 0.000001 -0.000001 0.000001 -0.000000 0.608283 -2.105585 -11.581397 -46.459172 -29.078813 -92.550716 -0.000004 -20.859000 -0.000007 -20.416216 18.957800 30.637934 55.682673 -2.117580 45.305570 81.950345 -1.423271 50.782439 -0.000001 -0.000005 -0.000005 0.230319 3.926598 -22.478603 5.723165 5.849660 -88.745338 0.000000 0.000000 -0.000000 6.341385 9.458896 -58.484301 6.990970 5.739297 -101.253327 -0.000002 -0.000000 -0.000000 7.415885 8.807696 -74.918023 5.953040 5.850161 -91.000427 -0.000001 -0.000001 0.000000 20.711408 9.388354 -85.840704 5.062044 5.797795 -82.236625 -0.000002 -0.000003 -0.000001 0.000002 0.000001 -0.000001 0.000002 0.000001 -0.000001 0.000002 0.000001 -0.000001 0.000000 -0.000001 0.000000 0.000000 -0.000001 -0.000001 0.000000 -0.000001 0.000000 0.000001 -0.000001 -0.000000 -0.784376 15.466931 22.252674 -56.162870 25.008347 77.070933 0.000003 0.015617 -0.000006 -12.877769 -7.607194 2.872486 -0.787149 13.150266 -22.268099 11.690785 -49.505635 19.340335 0.000000 -0.000002 -0.000003 -2.857604 -16.672232 -11.849145 4.400813 -4.650140 86.840992 -0.000000 -0.000001 -0.000002 6.189305 -11.029347 41.067117 5.549088 -4.571151 101.053229 -0.000002 0.000001 0.000000 -0.865237 -4.640731 62.576342 4.860700 -4.652724 92.507522 0.000002 0.000001 -0.000001 -13.667247 -1.460376 72.993173 3.233235 -4.434593 72.178147 0.000001 0.000002 0.000001 -0.000001 -0.000001 -0.000000 -0.000001 -0.000000 0.000001 -0.000001 -0.000001 -0.000000 -0.000001 0.000000 -0.000001 0.000000 0.000000 -0.000001 -0.000001 0.000000 -0.000001 0.000001 -0.000000 0.000000 -0.000002 0.000001 -0.000001 -0.000002 0.000001 -0.000001 -0.000002 0.000001 -0.000001 -0.000002 0.000001 -0.000001 -0.000002 0.000001 -0.000001 -0.000002 0.000001 -0.000001 -0.000002 0.000001 -0.000001 -0.000002 -0.000000 -0.000000 -0.000002 0.000000 -0.000000 
-6.570419 85.584129 0.575235 51.437762 -70.870610 52.323808 -0.000002 -0.000001 0.000000 -57.359416 1.854356 -1.866482 46.004432 -9.854751 1.573066 -5.395002 -0.310971 -1.150127 -0.000000 0.000000 -0.000000 -0.000000 -0.000000 -0.000000 -46.222605 -2.283959 -21.093849 51.123904 -3.695826 -2.098699 -16.818045 -3.896606 17.601353 -0.000000 -0.000001 -0.000000 0.000002 0.000000 -0.000000 7.782400 3.343167 4.562387 12.722936 6.393026 6.642684 12.744202 6.422143 6.572912 1.421262 -0.181577 0.900832 1.421278 -0.181566 0.900826 -0.000001 0.000001 0.000001 1.421312 -0.181580 0.900836 1.421232 -0.181515 0.900816 -0.000000 0.000000 -0.000000 -0.000001 0.000001 0.000002 0.608189 -2.112951 -11.540779 -46.406382 -29.046291 -92.578167 -0.000004 -20.879916 0.000002 -20.407338 18.976284 30.509372 55.367521 -2.060155 45.240916 83.883281 -1.387095 51.818463 -0.000000 -0.000005 -0.000005 0.241765 3.953156 -22.443465 5.716006 5.849510 -88.675123 0.000001 0.000000 0.000001 6.324668 9.455564 -58.401690 6.990980 5.739315 -101.253340 0.000000 0.000000 -0.000002 7.408053 8.809492 -74.848491 5.949538 5.850228 -90.965989 -0.000000 -0.000002 -0.000003 20.660089 9.415032 -85.725301 5.052619 5.796495 -82.143379 0.000001 -0.000005 -0.000002 0.000001 -0.000001 0.000001 0.000001 -0.000001 0.000001 0.000001 -0.000001 0.000000 0.000001 0.000000 -0.000000 0.000001 0.000000 -0.000000 0.000001 0.000000 -0.000000 0.000001 0.000000 -0.000000 -0.774895 15.458357 22.231161 -54.597291 24.896572 76.442917 0.000007 2.873086 0.000001 -12.870069 -9.290308 2.437207 -0.798240 13.174578 -22.271980 11.757467 -49.535899 19.412197 0.000002 -0.000002 -0.000001 -2.848319 -16.689883 -11.803251 4.402677 -4.650226 86.864133 -0.000002 -0.000002 0.000002 6.207324 -11.051155 41.060912 5.549086 -4.571131 101.053229 -0.000000 -0.000000 0.000000 -0.875329 -4.637292 62.599394 4.858815 -4.652807 92.484293 -0.000001 -0.000003 0.000001 -13.666209 -1.439315 72.929700 3.229960 -4.433538 72.135957 0.000000 -0.000002 0.000000 0.000003 0.000001 0.000001 0.000002 -0.000003 -0.000001 0.000003 0.000001 0.000001 -0.000003 -0.000002 -0.000002 -0.000002 -0.000002 -0.000002 -0.000003 -0.000002 -0.000002 -0.000002 -0.000002 -0.000000 0.000000 -0.000001 -0.000000 0.000000 -0.000001 -0.000000 0.000000 -0.000001 -0.000000 0.000000 -0.000001 -0.000000 0.000000 -0.000001 -0.000000 0.000000 -0.000001 -0.000000 0.000000 -0.000001 -0.000000 -0.000000 -0.000000 -0.000000 -0.000002 -0.000001 0.000000 
-6.570700 85.595001 0.629657 51.369026 -70.848056 52.246323 -0.000001 0.000000 -0.000000 -57.336665 1.829479 -1.911365 45.969881 -9.745919 1.556364 -5.363757 -0.315368 -1.128343 -0.000000 -0.000000 0.000000 0.000000 -0.000000 0.000000 -46.158931 -2.296115 -21.151286 51.036652 -3.669745 -2.073833 -16.781189 -3.921504 17.630204 -0.000000 0.000000 0.000000 -0.000002 -0.000000 0.000000 7.783877 3.331428 4.551006 12.734719 6.382427 6.620582 12.753674 6.413143 6.553428 1.490256 -0.163982 0.903083 1.490242 -0.163966 0.903055 -0.000003 0.000000 0.000000 1.490258 -0.163978 0.903081 1.490325 -0.164022 0.903094 -0.000000 0.000000 -0.000000 -0.000003 0.000000 -0.000001 0.607736 -2.121758 -11.501769 -46.348755 -29.026190 -92.588713 0.000003 -20.910896 0.000015 -20.414903 18.980112 30.448184 55.053432 -2.001842 45.179826 85.655326 -1.068759 52.951598 0.000001 -0.000001 -0.000001 0.253182 3.979733 -22.408329 5.708861 5.849354 -88.604943 0.000003 -0.000000 -0.000002 6.308003 9.452172 -58.319106 6.990968 5.739314 -101.253347 0.000001 -0.000001 0.000003 7.400221 8.811266 -74.778946 5.946061 5.850273 -90.931640 -0.000001 -0.000001 0.000002 20.608689 9.441505 -85.609878 5.043208 5.795185 -82.050127 -0.000001 -0.000003 -0.000007 -0.000001 -0.000000 0.000001 -0.000001 -0.000000 0.000001 -0.000001 -0.000000 0.000001 0.000001 0.000001 -0.000000 0.000001 0.000001 -0.000000 0.000001 0.000001 -0.000000 0.000001 0.000001 -0.000000 -0.771688 15.442479 22.219743 -54.175572 25.033915 76.267757 0.000002 3.450917 -0.000001 -13.186373 -9.532937 2.438389 -0.811500 13.198144 -22.276933 11.835165 -49.570166 19.494975 -0.000001 -0.000002 -0.000001 -2.834100 -16.711492 -11.736790 4.407208 -4.650483 86.920052 -0.000000 0.000000 0.000002 6.223063 -11.065478 41.078913 5.549083 -4.571130 101.053257 -0.000001 0.000000 0.000000 -0.885599 -4.633892 62.624638 4.855920 -4.652924 92.448571 -0.000001 0.000001 -0.000002 -13.660870 -1.426067 72.885317 3.226695 -4.432485 72.093760 -0.000000 -0.000000 -0.000000 0.000003 0.000000 0.000000 0.000001 0.000000 0.000004 0.000003 0.000000 0.000002 -0.000003 0.000002 -0.000001 -0.000003 0.000003 -0.000001 -0.000003 0.000002 -0.000001 -0.000003 0.000003 0.000000 -0.000001 0.000001 0.000001 -0.000001 0.000001 0.000001 -0.000001 0.000001 0.000001 -0.000001 0.000001 0.000001 -0.000001 0.000001 0.000001 -0.000001 0.000001 0.000001 -0.000001 0.000001 0.000001 0.000002 0.000001 -0.000000 -0.000001 0.000000 -0.000000 
-6.568605 85.603996 0.685243 51.306154 -70.822614 52.175849 -0.000000 0.000000 -0.000000 -57.324835 1.847752 -1.966349 45.955224 -9.762481 1.560766 -5.366406 -0.322739 -1.077609 -0.000000 0.000000 -0.000000 -0.000000 0.000000 -0.000000 -46.099201 -2.294972 -21.209658 50.954680 -3.634996 -2.042122 -16.743761 -3.962377 17.656292 0.000000 0.000000 -0.000000 0.000001 0.000000 -0.000000 7.785088 3.325164 4.535484 12.748114 6.372641 6.603429 12.767398 6.402618 6.536458 1.559088 -0.144262 0.904034 1.559101 -0.144250 0.904012 -0.000004 0.000000 -0.000001 1.559007 -0.144227 0.904022 1.559122 -0.144336 0.904051 0.000001 -0.000002 -0.000001 -0.000004 0.000000 -0.000002 0.605217 -2.134141 -11.471693 -46.290384 -29.015330 -92.588508 -0.000006 -20.949855 -0.000003 -20.434118 18.977728 30.419265 54.740387 -1.942659 45.122224 87.181047 -0.340569 54.208367 -0.000000 -0.000001 -0.000004 0.264600 4.006400 -22.373270 5.701696 5.849161 -88.534736 0.000000 -0.000001 0.000000 6.291387 9.448803 -58.236529 6.990971 5.739307 -101.253347 0.000001 -0.000002 -0.000002 7.392386 8.813049 -74.709415 5.942550 5.850339 -90.897237 0.000000 -0.000004 -0.000000 20.557143 9.467830 -85.494420 5.033790 5.793875 -81.956908 -0.000002 -0.000005 -0.000006 -0.000000 -0.000001 -0.000000 -0.000000 -0.000001 -0.000000 -0.000000 -0.000001 -0.000000 0.000000 0.000000 -0.000000 0.000000 0.000000 -0.000000 0.000000 0.000000 -0.000000 0.000000 -0.000000 -0.000000 -0.765677 15.424787 22.200343 -53.294754 25.069704 75.930817 -0.000012 4.975369 0.000006 -13.266102 -10.397365 2.181846 -0.824683 13.208688 -22.283781 11.930253 -49.611684 19.594098 0.000000 0.000000 0.000001 -2.809479 -16.735777 -11.630370 4.407968 -4.650510 86.929409 0.000000 0.000003 -0.000002 6.238571 -11.074692 41.121154 5.549086 -4.571141 101.053216 0.000001 0.000001 -0.000000 -0.896607 -4.631378 62.666139 4.854697 -4.652984 92.433394 -0.000001 -0.000001 -0.000002 -13.676187 -1.418082 72.876588 3.223424 -4.431463 72.051515 -0.000000 0.000003 -0.000000 0.000003 -0.000001 0.000000 0.000003 -0.000000 0.000003 0.000004 -0.000001 0.000002 -0.000000 0.000001 0.000002 0.000000 0.000002 0.000000 -0.000000 0.000001 0.000002 0.000000 0.000002 0.000002 -0.000002 0.000002 0.000001 -0.000002 0.000002 0.000001 -0.000002 0.000002 0.000001 -0.000002 0.000002 0.000001 -0.000002 0.000002 0.000001 -0.000002 0.000002 0.000001 -0.000002 0.000002 0.000001 0.000000 0.000000 -0.000000 -0.000000 0.000000 -0.000000 
